<svg fill="none" height="24" viewBox="0 0 24 24" width="24" xmlns="http://www.w3.org/2000/svg"><path d="m21.7392 11.07c-.05-.51-.48-.89-.99-.89h-7.55c-.55 0-1 .45-1 1v1.71c0 .55.45 1 1 1h4.51c-.11.92-.71 2.31-2.04 3.24-.85.59-1.98 1-3.47 1-.07 0-.13 0-.2-.01-2.54998-.08-4.70998-1.79-5.48998-4.14-.21-.63-.33-1.29-.33-1.98s.12-1.36.32-1.98c.06-.18001.13-.35999.21-.53999.92-2.07 2.93-3.53001 5.28998-3.60001.06-.01.13-.01.2-.01 1.43 0 2.5.46999 3.25.98999.39.27.91.21 1.25-.12l1.39-1.35999c.44-.43.4-1.16001-.1-1.52001-1.59-1.17-3.53-1.85999-5.79-1.85999-.07 0-.13.00001-.2.01001-3.82998.07-7.11998 2.29-8.72998 5.5-.68 1.36-1.07 2.87999-1.07 4.48999s.39 3.13 1.07 4.49h.01c1.61 3.21 4.9 5.43 8.71998 5.5.07.01.13.01.2.01 2.7 0 4.97-.89 6.62-2.42 1.89-1.75 2.98-4.31 2.98-7.36 0-.43-.02-.8-.06-1.15z" fill="#000"/></svg>