<svg height="512" width="512" xmlns="http://www.w3.org/2000/svg"><path d="m201.217041 172.4978027-124.7257995 216.0069886-29.1203842-49.3626709 33.6143723-57.8508911-66.7577057-.175415-14.2275239-24.6658021 14.5285435-25.228363 95.0226822.2999115 34.1504822-58.8742676zm9.5685578 172.67276 249.4304047.0122681-28.189209 49.9002991-66.9075012-.1854248 33.2269592 57.9015198-14.2474976 24.6542969-29.1127014.0326843-47.2515259-82.4420166-68.0618896-.138092zm145.1773223-94.6489868-124.7046508-216.0192642 57.3095398-.5376053 33.2931213 58.0363159 33.5307617-57.7261848 28.4749756.0112114 14.5841064 25.1962738-47.7711487 82.1420517 33.911377 59.0123596zm-199.7566375 10.9568482 124.7046356 216.0192566-57.3095551.5375977-33.2931213-58.0362854-33.5307465 57.7261658-28.4750061-.0112-14.5841522-25.1962891 47.7711639-82.1420288-33.9114227-59.0123901zm144.8455963-95.1949463-249.4304504-.0122681 28.1891632-49.9003525 66.9074936.1854935-33.2269363-57.9015846 14.2474823-24.6543045 29.1126785-.0321426 47.2515259 82.4420319 68.0619049.138031zm9.7310486 173.1726379 124.7258301-216.0069275 29.1203918 49.3627396-33.6143799 57.8508759 66.7577209.1753387 14.2275086 24.6658249-14.5285645 25.2284851-95.022644-.3000488-34.1504517 58.8743286z"/></svg>