<svg fill="none" height="40" viewBox="0 0 40 40" width="40" xmlns="http://www.w3.org/2000/svg"><path d="m26.6666 9.16658h-16.6667c-1.84095 0-3.33334 1.49242-3.33334 3.33332 0 1.841 1.49239 3.3333 3.33334 3.3333h16.6667m-13.3334 8.3334h16.6667c1.8409 0 3.3333 1.4924 3.3333 3.3333 0 1.841-1.4924 3.3333-3.3333 3.3333h-16.6667m20-18.3333c0 2.3012-1.8655 4.1667-4.1666 4.1667-2.3012 0-4.1667-1.8655-4.1667-4.1667s1.8655-4.16665 4.1667-4.16665c2.3011 0 4.1666 1.86545 4.1666 4.16665zm-26.66664 15c0 2.3012 1.86548 4.1667 4.16664 4.1667 2.3012 0 4.1667-1.8655 4.1667-4.1667s-1.8655-4.1667-4.1667-4.1667c-2.30116 0-4.16664 1.8655-4.16664 4.1667z" stroke="#000" stroke-linecap="round" stroke-linejoin="round" stroke-width="2"/></svg>